<svg xmlns="http://www.w3.org/2000/svg" height="40" viewBox="0 -960 960 960" width="40"><path fill="#F28B24" d="M440-438ZM106.666-120q-27 0-46.833-19.833T40-186.666v-502.001q0-26.333 19.833-46.5 19.833-20.166 46.833-20.166h140.001L320-840h262.667v66.666H350.333l-73 84.667H106.666v502.001h666.668v-396.001H840v396.001q0 27-20.167 46.833Q799.667-120 773.334-120H106.666Zm666.668-569.334v-84h-84V-840h84v-84.667H840V-840h84.667v66.666H840v84h-66.666ZM439.667-264.667q73.333 0 123.5-50.166 50.166-50.167 50.166-123.5 0-73.334-50.166-123.167-50.167-49.833-123.5-49.833-73.334 0-123.167 49.833t-49.833 123.167q0 73.333 49.833 123.5 49.833 50.166 123.167 50.166Zm0-66.666q-45.667 0-76-30.667-30.334-30.667-30.334-76.333 0-45.667 30.334-76 30.333-30.334 76-30.334 45.666 0 76.333 30.334 30.667 30.333 30.667 76 0 45.666-30.667 76.333t-76.333 30.667Z"/></svg>