<svg width="45" height="75" viewBox="0 0 45 75" fill="none" xmlns="http://www.w3.org/2000/svg">
<path d="M35.8777 0H8.54231C3.82695 0 0 3.80444 0 8.49206V66.2381C0 70.9257 3.82695 74.7301 8.54231 74.7301H35.8777C40.593 74.7301 44.42 70.9257 44.42 66.2381V8.49206C44.42 3.80444 40.593 0 35.8777 0ZM22.21 71.3333C19.374 71.3333 17.0846 69.0574 17.0846 66.2381C17.0846 63.4187 19.374 61.1428 22.21 61.1428C25.046 61.1428 27.3354 63.4187 27.3354 66.2381C27.3354 69.0574 25.046 71.3333 22.21 71.3333ZM37.5862 57.746H6.83385V10.1905H37.5862V57.746Z" fill="#343A40"/>
<path d="M28.3206 29.9844L30.3618 26.4568C30.5393 26.1129 30.4062 25.6913 30.0734 25.5138C29.7517 25.3474 29.3523 25.4473 29.1526 25.7579L27.0671 29.3521C23.8944 28.0098 20.3224 28.0098 17.1497 29.3521L15.0641 25.7579C14.8534 25.4362 14.4207 25.3363 14.099 25.536C13.7884 25.7357 13.6886 26.1351 13.855 26.4568L15.8961 29.9844C12.4572 31.948 10.2164 35.4867 9.90576 39.4359H34.311C34.0004 35.4867 31.7596 31.948 28.3206 29.9844ZM16.5617 36.3853C15.7963 36.3853 15.1751 35.7641 15.1751 34.9986C15.1751 34.2332 15.7963 33.612 16.5617 33.612C17.3272 33.612 17.9484 34.2332 17.9484 34.9986C17.9484 35.7641 17.3272 36.3853 16.5617 36.3853ZM27.655 36.3853C26.8896 36.3853 26.2684 35.7641 26.2684 34.9986C26.2684 34.2332 26.8896 33.612 27.655 33.612C28.4205 33.612 29.0417 34.2332 29.0417 34.9986C29.0417 35.7641 28.4205 36.3853 27.655 36.3853Z" fill="#343A40"/>
</svg>
