<svg width="24" height="24" viewBox="0 0 24 24" fill="none" xmlns="http://www.w3.org/2000/svg">
<path d="M19.1007 7.4108C19.7991 12.377 16.0351 16.5398 13.1918 16.9399C10.3485 17.3401 5.58036 14.3576 4.88334 9.40932C4.75215 8.47591 4.80609 7.52581 5.04208 6.61324C5.27807 5.70068 5.69149 4.84354 6.25874 4.09075C6.82599 3.33796 7.53596 2.70427 8.3481 2.22586C9.16025 1.74746 10.0587 1.4337 10.9921 1.3025C11.9255 1.17131 12.8756 1.22524 13.7882 1.46124C14.7007 1.69723 15.5579 2.11065 16.3107 2.6779C17.0634 3.24515 17.6971 3.95511 18.1755 4.76726C18.654 5.57941 18.9677 6.47784 19.0989 7.41125L19.1007 7.4108Z" stroke="#262525" stroke-width="2" stroke-miterlimit="10"/>
<path d="M11.105 14.3372C9.63054 13.7534 8.09235 12.4016 7.41016 10.4992" stroke="#262525" stroke-width="2" stroke-miterlimit="10" stroke-linecap="round"/>
<path d="M17.0157 22.7688C15.5413 22.185 14.1724 20.9697 13.4902 19.0677" stroke="#262525" stroke-width="2" stroke-miterlimit="10" stroke-linecap="round"/>
<path d="M12.4812 17.0389L12.0693 19.2669L14.9126 18.8672L13.9026 16.8391L12.4812 17.0389Z" stroke="#262525" stroke-width="2" stroke-linecap="round" stroke-linejoin="round"/>
</svg>
