<svg width="129" height="129" viewBox="0 0 129 129" fill="none" xmlns="http://www.w3.org/2000/svg">
<mask id="mask0_1095_3255" style="mask-type:alpha" maskUnits="userSpaceOnUse" x="0" y="0" width="129" height="129">
<rect width="129" height="129" fill="#D9D9D9"/>
</mask>
<g mask="url(#mask0_1095_3255)">
<path d="M64.5 91.375C66.0229 91.375 67.2995 90.8599 68.3297 89.8297C69.3599 88.7995 69.875 87.5229 69.875 86C69.875 84.4771 69.3599 83.2005 68.3297 82.1703C67.2995 81.1401 66.0229 80.625 64.5 80.625C62.9771 80.625 61.7005 81.1401 60.6703 82.1703C59.6401 83.2005 59.125 84.4771 59.125 86C59.125 87.5229 59.6401 88.7995 60.6703 89.8297C61.7005 90.8599 62.9771 91.375 64.5 91.375ZM59.125 69.875H69.875V37.625H59.125V69.875ZM64.5 118.25C57.0646 118.25 50.0771 116.839 43.5375 114.017C36.9979 111.195 31.3094 107.366 26.4719 102.528C21.6344 97.6906 17.8047 92.0021 14.9828 85.4625C12.1609 78.9229 10.75 71.9354 10.75 64.5C10.75 57.0646 12.1609 50.0771 14.9828 43.5375C17.8047 36.9979 21.6344 31.3094 26.4719 26.4719C31.3094 21.6344 36.9979 17.8047 43.5375 14.9828C50.0771 12.1609 57.0646 10.75 64.5 10.75C71.9354 10.75 78.9229 12.1609 85.4625 14.9828C92.0021 17.8047 97.6906 21.6344 102.528 26.4719C107.366 31.3094 111.195 36.9979 114.017 43.5375C116.839 50.0771 118.25 57.0646 118.25 64.5C118.25 71.9354 116.839 78.9229 114.017 85.4625C111.195 92.0021 107.366 97.6906 102.528 102.528C97.6906 107.366 92.0021 111.195 85.4625 114.017C78.9229 116.839 71.9354 118.25 64.5 118.25ZM64.5 107.5C76.5042 107.5 86.6719 103.334 95.0031 95.0031C103.334 86.6719 107.5 76.5042 107.5 64.5C107.5 52.4958 103.334 42.3281 95.0031 33.9969C86.6719 25.6656 76.5042 21.5 64.5 21.5C52.4958 21.5 42.3281 25.6656 33.9969 33.9969C25.6656 42.3281 21.5 52.4958 21.5 64.5C21.5 76.5042 25.6656 86.6719 33.9969 95.0031C42.3281 103.334 52.4958 107.5 64.5 107.5Z" fill="#FF5B4D"/>
</g>
</svg>
