<svg width="109" height="109" viewBox="0 0 109 109" fill="none" xmlns="http://www.w3.org/2000/svg">
<path d="M54.5 81.375C56.0229 81.375 57.2995 80.8599 58.3297 79.8297C59.3599 78.7995 59.875 77.5229 59.875 76C59.875 74.4771 59.3599 73.2005 58.3297 72.1703C57.2995 71.1401 56.0229 70.625 54.5 70.625C52.9771 70.625 51.7005 71.1401 50.6703 72.1703C49.6401 73.2005 49.125 74.4771 49.125 76C49.125 77.5229 49.6401 78.7995 50.6703 79.8297C51.7005 80.8599 52.9771 81.375 54.5 81.375ZM49.125 59.875H59.875V27.625H49.125V59.875ZM54.5 108.25C47.0646 108.25 40.0771 106.839 33.5375 104.017C26.9979 101.195 21.3094 97.3656 16.4719 92.5281C11.6344 87.6906 7.80469 82.0021 4.98281 75.4625C2.16094 68.9229 0.75 61.9354 0.75 54.5C0.75 47.0646 2.16094 40.0771 4.98281 33.5375C7.80469 26.9979 11.6344 21.3094 16.4719 16.4719C21.3094 11.6344 26.9979 7.80469 33.5375 4.98281C40.0771 2.16094 47.0646 0.75 54.5 0.75C61.9354 0.75 68.9229 2.16094 75.4625 4.98281C82.0021 7.80469 87.6906 11.6344 92.5281 16.4719C97.3656 21.3094 101.195 26.9979 104.017 33.5375C106.839 40.0771 108.25 47.0646 108.25 54.5C108.25 61.9354 106.839 68.9229 104.017 75.4625C101.195 82.0021 97.3656 87.6906 92.5281 92.5281C87.6906 97.3656 82.0021 101.195 75.4625 104.017C68.9229 106.839 61.9354 108.25 54.5 108.25ZM54.5 97.5C66.5042 97.5 76.6719 93.3344 85.0031 85.0031C93.3344 76.6719 97.5 66.5042 97.5 54.5C97.5 42.4958 93.3344 32.3281 85.0031 23.9969C76.6719 15.6656 66.5042 11.5 54.5 11.5C42.4958 11.5 32.3281 15.6656 23.9969 23.9969C15.6656 32.3281 11.5 42.4958 11.5 54.5C11.5 66.5042 15.6656 76.6719 23.9969 85.0031C32.3281 93.3344 42.4958 97.5 54.5 97.5Z" fill="#FF5B4D"/>
</svg>
