<svg width="24" height="24" viewBox="0 0 24 24" fill="none" xmlns="http://www.w3.org/2000/svg">
<path d="M13.0041 11.5784C12.9526 11.4845 12.8882 11.3982 12.8129 11.322L11.9532 10.474C11.8649 10.3841 11.7606 10.3115 11.6457 10.2598C11.4648 10.1791 11.2638 10.1551 11.0691 10.1908C10.8743 10.2265 10.6949 10.3203 10.5544 10.4599C10.2563 10.7534 9.71068 11.2887 8.72631 12.2613C6.84381 14.1237 3.34834 17.2451 1.76771 18.5763C1.68808 18.643 1.62315 18.7254 1.57703 18.8185C1.53092 18.9115 1.50463 19.0131 1.49983 19.1168C1.49502 19.2206 1.51181 19.3242 1.54913 19.4211C1.58645 19.518 1.64348 19.6061 1.71662 19.6798L3.54475 21.528C3.61836 21.6019 3.70646 21.6597 3.8035 21.6979C3.90054 21.736 4.00443 21.7537 4.10863 21.7498C4.21284 21.7459 4.3151 21.7205 4.409 21.6751C4.50291 21.6298 4.58641 21.5655 4.65428 21.4863C6.0249 19.8752 9.16834 16.377 11.0293 14.5381C11.9851 13.5977 12.5208 13.0577 12.8241 12.7596C12.9745 12.6067 13.0729 12.4102 13.1052 12.1981C13.1375 11.986 13.1021 11.7692 13.0041 11.5784V11.5784Z" stroke="#262525" stroke-width="2" stroke-linecap="round" stroke-linejoin="round"/>
<path d="M22.4265 9.42184L20.8182 7.82809C20.7937 7.80357 20.7644 7.78431 20.7321 7.77149C20.6999 7.75868 20.6654 7.75258 20.6307 7.75356C20.5961 7.75298 20.5617 7.75926 20.5295 7.77205C20.4973 7.78485 20.468 7.80389 20.4432 7.82809C20.3853 7.88627 20.3149 7.93035 20.2372 7.95693C20.1596 7.98351 20.0769 7.99187 19.9955 7.98137C19.7855 7.9584 19.562 7.89325 19.4176 7.75356C19.0895 7.432 19.4687 6.79919 19.1799 6.39419C18.8502 5.95099 18.4886 5.53239 18.098 5.14169C17.7671 4.81356 16.4663 3.57278 14.2754 2.67934C13.5762 2.39291 12.8278 2.24578 12.0723 2.24622C10.8371 2.24622 9.88742 2.79747 9.54102 3.11387C9.26539 3.36325 8.97852 3.75934 8.97852 3.75934C9.14417 3.69895 9.3134 3.64885 9.48524 3.60934C9.84357 3.53255 10.2113 3.50902 10.5765 3.5395C11.3059 3.59997 12.1848 3.94215 12.6563 4.31247C13.4162 4.92184 13.7429 5.737 13.794 6.78887C13.8315 7.57122 13.0801 8.55887 12.3671 9.36419C12.3044 9.43499 12.2713 9.52724 12.2748 9.62177C12.2783 9.7163 12.3181 9.80585 12.3859 9.87184L13.3815 10.867C13.4508 10.9355 13.5442 10.9743 13.6416 10.9752C13.7391 10.976 13.8331 10.9389 13.9037 10.8717C14.5566 10.2384 15.361 9.53715 15.8171 9.25637C16.2732 8.97559 16.6412 8.89637 16.8179 8.87715C17.1651 8.84353 17.5142 8.91925 17.8163 9.09372C17.8695 9.12382 17.9182 9.16139 17.9607 9.20528C18.2635 9.51278 18.2452 10.0153 17.9373 10.3181L17.8435 10.4067C17.8191 10.4307 17.7998 10.4593 17.7866 10.4908C17.7734 10.5224 17.7665 10.5562 17.7665 10.5904C17.7665 10.6246 17.7734 10.6585 17.7866 10.69C17.7998 10.7216 17.8191 10.7502 17.8435 10.7742L19.4518 12.3679C19.4765 12.3922 19.5058 12.4113 19.538 12.4241C19.5702 12.4368 19.6047 12.4429 19.6393 12.442C19.7091 12.443 19.7765 12.4164 19.8268 12.3679L22.4265 9.79684C22.4744 9.74618 22.5011 9.67908 22.5011 9.60934C22.5011 9.5396 22.4744 9.4725 22.4265 9.42184V9.42184Z" stroke="#262525" stroke-width="2" stroke-linecap="round" stroke-linejoin="round"/>
</svg>
