<svg width="24" height="24" viewBox="0 0 24 24" fill="none" xmlns="http://www.w3.org/2000/svg">
<path d="M18.75 14.9993C18.75 19.1416 16.1423 21.7493 12 21.7493C7.85766 21.7493 5.25 19.1416 5.25 14.9993C5.25 10.5541 10.0889 4.55318 11.573 2.8174C11.6258 2.75573 11.6913 2.70622 11.7651 2.67228C11.8388 2.63833 11.919 2.62076 12.0002 2.62076C12.0814 2.62076 12.1617 2.63833 12.2354 2.67228C12.3092 2.70622 12.3747 2.75573 12.4275 2.8174C13.9111 4.55318 18.75 10.5541 18.75 14.9993Z" stroke="#262525" stroke-width="2" stroke-miterlimit="10"/>
<path d="M16.125 15.375C16.125 16.2701 15.7694 17.1285 15.1365 17.7615C14.5035 18.3944 13.6451 18.75 12.75 18.75" stroke="#262525" stroke-width="2" stroke-linecap="round" stroke-linejoin="round"/>
</svg>
