<svg width="24" height="24" viewBox="0 0 24 24" fill="none" xmlns="http://www.w3.org/2000/svg">
<path d="M12 2.25C6.61547 2.25 2.25 6.61547 2.25 12C2.25 17.3845 6.61547 21.75 12 21.75C17.3845 21.75 21.75 17.3845 21.75 12C21.75 6.61547 17.3845 2.25 12 2.25Z" stroke="#262525" stroke-width="2" stroke-miterlimit="10"/>
<path d="M12.0001 2.25C9.27812 2.25 6.71875 6.61547 6.71875 12C6.71875 17.3845 9.27812 21.75 12.0001 21.75C14.7222 21.75 17.2815 17.3845 17.2815 12C17.2815 6.61547 14.7222 2.25 12.0001 2.25Z" stroke="#262525" stroke-width="2" stroke-miterlimit="10"/>
<path d="M5.5 5.49985C7.2925 6.7725 9.54906 7.53141 12.0002 7.53141C14.4512 7.53141 16.7078 6.7725 18.5003 5.49985" stroke="#262525" stroke-width="2" stroke-linecap="round" stroke-linejoin="round"/>
<path d="M18.5003 18.5001C16.7078 17.2275 14.4512 16.4686 12.0002 16.4686C9.54906 16.4686 7.2925 17.2275 5.5 18.5001" stroke="#262525" stroke-width="2" stroke-linecap="round" stroke-linejoin="round"/>
<path d="M12 2.25V21.75" stroke="#262525" stroke-width="2" stroke-miterlimit="10"/>
<path d="M21.75 12H2.25" stroke="#262525" stroke-width="2" stroke-miterlimit="10"/>
</svg>
