<svg width="24" height="24" viewBox="0 0 24 24" fill="none" xmlns="http://www.w3.org/2000/svg">
<path d="M20.6491 16.2094L19.1303 15.3281C19.6834 14.7516 20.3491 14.475 20.3584 14.4703C20.71 14.3297 20.8928 13.9359 20.7756 13.575C20.6866 13.2984 20.4287 13.1156 20.1428 13.1156C20.0537 13.1156 19.9694 13.1344 19.885 13.1672C19.8381 13.1859 18.7412 13.6359 17.9209 14.6297L13.4069 12.0047L17.9209 9.37969C18.7412 10.3734 19.8334 10.8234 19.885 10.8422C19.9694 10.875 20.0537 10.8938 20.1428 10.8938C20.4287 10.8938 20.6866 10.7063 20.7756 10.4344C20.8928 10.0734 20.71 9.67969 20.3584 9.53906C20.3537 9.53438 19.6881 9.25781 19.1303 8.68125L20.6491 7.8C20.9866 7.60313 21.0991 7.17188 20.9069 6.83438C20.7803 6.61406 20.5459 6.47813 20.2928 6.47813C20.1709 6.47813 20.0444 6.51094 19.9366 6.57188L18.4272 7.45313C18.2162 6.69375 18.3006 5.98125 18.3053 5.95313C18.3569 5.57344 18.1131 5.22188 17.7428 5.14219C17.6959 5.13281 17.6491 5.12813 17.6022 5.12813C17.2694 5.12813 16.9928 5.37188 16.9412 5.70938C16.9319 5.76094 16.7725 6.92813 17.2272 8.15625L12.7272 10.7813V6.13125C13.9881 5.91094 14.9209 5.18438 14.9631 5.15156C15.1084 5.03438 15.2022 4.87031 15.2162 4.68281C15.2303 4.49531 15.1741 4.31719 15.0475 4.17656C14.9116 4.02656 14.7194 3.9375 14.5131 3.9375C14.3537 3.9375 14.1944 3.99375 14.0678 4.09219C14.0631 4.09688 13.4959 4.53281 12.7272 4.72969V2.95781C12.7272 2.57344 12.3944 2.25 12.0006 2.25C11.6069 2.25 11.2741 2.57344 11.2741 2.95781V4.71563C10.51 4.51875 9.94281 4.08281 9.93343 4.07813C9.80687 3.97969 9.65218 3.92344 9.48812 3.92344C9.28187 3.92344 9.08968 4.0125 8.95374 4.1625C8.82718 4.30313 8.76624 4.49063 8.78499 4.67344C8.79906 4.85625 8.89281 5.02031 9.03812 5.1375C9.08031 5.17031 10.0131 5.89688 11.2741 6.11719V10.7672L6.77406 8.14219C7.22406 6.92344 7.06468 5.74688 7.05531 5.69531C7.00843 5.35781 6.73187 5.11406 6.39906 5.11406C6.35218 5.11406 6.30531 5.11875 6.25843 5.12813C5.88812 5.20313 5.63968 5.56406 5.69593 5.93906C5.69593 5.94844 5.78968 6.66563 5.57406 7.43438L4.05999 6.5625C3.95218 6.50156 3.83031 6.46875 3.70374 6.46875C3.45062 6.46875 3.21624 6.60469 3.08968 6.825C2.89749 7.1625 3.00999 7.59844 3.34749 7.79063L4.86624 8.67188C4.31781 9.23906 3.66156 9.52031 3.63812 9.52969C3.28656 9.67031 3.10374 10.0641 3.22093 10.425C3.30999 10.7016 3.56781 10.8844 3.85374 10.8844C3.94281 10.8844 4.02718 10.8656 4.11156 10.8328C4.15843 10.8141 5.25531 10.3641 6.07562 9.37031L10.5897 11.9953L6.07562 14.6203C5.25531 13.6266 4.16312 13.1766 4.11156 13.1578C4.02718 13.125 3.94281 13.1063 3.85374 13.1063C3.56781 13.1063 3.30999 13.2938 3.22093 13.5656C3.10374 13.9266 3.28656 14.3156 3.63812 14.4609C3.66156 14.4703 4.31781 14.7516 4.86624 15.3188L3.34749 16.2C3.00999 16.3969 2.89749 16.8281 3.08968 17.1656C3.21624 17.3859 3.45062 17.5219 3.70374 17.5219C3.82562 17.5219 3.95218 17.4891 4.05999 17.4281L5.57406 16.5469C5.78968 17.3203 5.69593 18.0375 5.69593 18.0469C5.63968 18.4219 5.88812 18.7828 6.25843 18.8578C6.30531 18.8672 6.35218 18.8719 6.39906 18.8719C6.73187 18.8719 7.00843 18.6281 7.05999 18.2906C7.06937 18.2391 7.22874 17.0719 6.77406 15.8438L11.2741 13.2188V17.8688C10.0131 18.0891 9.08031 18.8156 9.03812 18.8484C8.89281 18.9656 8.79906 19.1297 8.78499 19.3172C8.77093 19.5047 8.82718 19.6828 8.95374 19.8234C9.08968 19.9734 9.28187 20.0625 9.48812 20.0625C9.64749 20.0625 9.80687 20.0063 9.93343 19.9078C9.93812 19.9031 10.51 19.4672 11.2741 19.2703V21.0281C11.2741 21.4125 11.6069 21.7359 12.0006 21.7359C12.3944 21.7359 12.7272 21.4125 12.7272 21.0281V19.2703C13.4912 19.4672 14.0584 19.9031 14.0678 19.9078C14.1944 20.0063 14.3537 20.0625 14.5131 20.0625C14.7194 20.0625 14.9116 19.9734 15.0475 19.8234C15.1741 19.6828 15.235 19.4953 15.2162 19.3125C15.2022 19.1297 15.1084 18.9656 14.9631 18.8484C14.9209 18.8156 13.9881 18.0891 12.7272 17.8688V13.2188L17.2272 15.8438C16.7772 17.0625 16.9366 18.2391 16.9459 18.2906C16.9928 18.6281 17.2694 18.8719 17.6022 18.8719C17.6491 18.8719 17.6959 18.8672 17.7428 18.8578C18.1131 18.7828 18.3569 18.4266 18.3053 18.0469C18.3006 18.0234 18.2162 17.3109 18.4272 16.5469L19.9366 17.4281C20.0444 17.4891 20.1662 17.5219 20.2928 17.5219C20.5459 17.5219 20.7803 17.3859 20.9069 17.1656C21.0991 16.8422 20.9866 16.4063 20.6491 16.2094Z" fill="#262525"/>
</svg>
