<svg width="48" height="48" viewBox="0 0 48 48" fill="none" xmlns="http://www.w3.org/2000/svg">
<mask id="mask0_362_173" style="mask-type:alpha" maskUnits="userSpaceOnUse" x="0" y="0" width="48" height="48">
<rect width="48" height="48" fill="#D9D9D9"/>
</mask>
<g mask="url(#mask0_362_173)">
<path d="M24.0085 33.9761C25.0695 33.9761 25.9751 33.6089 26.7251 32.8745C27.4751 32.1401 27.8501 31.2573 27.8501 30.2261C27.8501 29.2261 27.4723 28.3178 26.7167 27.5011C25.9611 26.6844 25.0527 26.2761 23.9917 26.2761C22.9306 26.2761 22.0251 26.6844 21.2751 27.5011C20.5251 28.3178 20.1501 29.2344 20.1501 30.2511C20.1501 31.2678 20.5279 32.1428 21.2835 32.8761C22.0391 33.6094 22.9474 33.9761 24.0085 33.9761ZM11.1077 44.275C10.1709 44.275 9.36892 43.9414 8.70182 43.2743C8.03472 42.6072 7.70117 41.8053 7.70117 40.8685V19.3837C7.70117 18.4436 8.03472 17.6388 8.70182 16.9694C9.36892 16.2999 10.1709 15.9652 11.1077 15.9652H26.8066V11.4283C26.8066 8.74938 27.7458 6.46843 29.6242 4.5854C31.5027 2.70237 33.7797 1.76085 36.4554 1.76085C39.1277 1.76085 41.4002 2.70237 43.2727 4.5854C45.1453 6.46843 46.0816 8.74938 46.0816 11.4283H42.6631C42.6631 9.68938 42.0614 8.21318 40.8582 6.99965C39.6549 5.78612 38.1875 5.17935 36.4559 5.17935C34.7158 5.17935 33.2423 5.78472 32.0354 6.99545C30.8285 8.20622 30.2251 9.68473 30.2251 11.431V15.9652H36.8925C37.8325 15.9652 38.6373 16.2999 39.3068 16.9694C39.9762 17.6388 40.311 18.4436 40.311 19.3837V40.8685C40.311 41.8053 39.9762 42.6072 39.3068 43.2743C38.6373 43.9414 37.8325 44.275 36.8925 44.275H11.1077Z" fill="#1C1B1F"/>
</g>
</svg>
