<svg width="91" height="61" viewBox="0 0 91 61" fill="none" xmlns="http://www.w3.org/2000/svg">
<path d="M75.8333 53.375C80.0042 53.375 83.3788 49.9438 83.3788 45.75L83.4167 7.625C83.4167 3.43125 80.0042 0 75.8333 0H15.1667C10.9958 0 7.58333 3.43125 7.58333 7.625V45.75C7.58333 49.9438 10.9958 53.375 15.1667 53.375H0V61H91V53.375H75.8333ZM15.1667 7.625H75.8333V45.75H15.1667V7.625Z" fill="#343A40"/>
<path d="M55.2769 22.435C53.0786 18.7962 47.5476 20.027 45.0569 21.0972C42.0101 19.92 39.9308 19.9824 39.272 20.1608C33.8727 21.3737 33.6477 27.2066 34.2102 29.9714C36.9484 37.7129 39.8183 39.2023 40.911 38.9793C41.4124 38.8366 44.1731 38.2658 45.4907 37.9983C46.0307 37.9983 48.9617 38.6226 50.3597 38.9347C52.8279 38.792 55.1483 34.4456 56 32.2903C49.8294 28.3303 52.9469 24.0702 55.2769 22.435Z" fill="#343A40"/>
<path d="M45 19.9867C45.0595 18.2982 46.1429 14.9371 50 15.0009C49.8571 19.3087 46.6071 20.1197 45 19.9867Z" fill="#343A40"/>
</svg>
