<svg width="45" height="75" viewBox="0 0 45 75" fill="none" xmlns="http://www.w3.org/2000/svg">
<path d="M35.8777 0H8.54231C3.82695 0 0 3.80444 0 8.49206V66.2381C0 70.9257 3.82695 74.7301 8.54231 74.7301H35.8777C40.593 74.7301 44.42 70.9257 44.42 66.2381V8.49206C44.42 3.80444 40.593 0 35.8777 0ZM22.21 71.3333C19.374 71.3333 17.0846 69.0574 17.0846 66.2381C17.0846 63.4187 19.374 61.1428 22.21 61.1428C25.046 61.1428 27.3354 63.4187 27.3354 66.2381C27.3354 69.0574 25.046 71.3333 22.21 71.3333ZM37.5862 57.746H6.83385V10.1905H37.5862V57.746Z" fill="#343A40"/>
<path d="M30.2659 28.7281C28.5427 25.6254 24.2071 26.6749 22.2546 27.5874C19.8664 26.5836 18.2364 26.6368 17.7199 26.7889C13.4876 27.8231 13.3112 32.7965 13.7521 35.1539C15.8985 41.7546 18.1482 43.0246 19.0048 42.8345C19.3978 42.7128 21.5618 42.2261 22.5947 41.998C23.018 41.998 25.3155 42.5303 26.4114 42.7965C28.3462 42.6748 30.1651 38.9688 30.8328 37.1311C25.9958 33.7547 28.4394 30.1222 30.2659 28.7281Z" fill="#343A40"/>
<path d="M22.4713 26.6393C22.5211 25.051 23.4269 21.8893 26.652 21.9493C26.5326 26.0015 23.8151 26.7644 22.4713 26.6393Z" fill="#343A40"/>
<path d="M30.2659 28.7281C28.5427 25.6254 24.2071 26.6749 22.2546 27.5874C19.8664 26.5836 18.2364 26.6368 17.7199 26.7889C13.4876 27.8231 13.3112 32.7965 13.7521 35.1539C15.8985 41.7546 18.1482 43.0246 19.0048 42.8345C19.3978 42.7128 21.5618 42.2261 22.5947 41.998C23.018 41.998 25.3155 42.5303 26.4114 42.7965C28.3462 42.6748 30.1651 38.9688 30.8328 37.1311C25.9958 33.7547 28.4394 30.1222 30.2659 28.7281Z" fill="#343A40"/>
<path d="M22.4713 26.6393C22.5211 25.051 23.4269 21.8893 26.652 21.9493C26.5326 26.0015 23.8151 26.7644 22.4713 26.6393Z" fill="#343A40"/>
</svg>
