<svg width="28" height="20" viewBox="0 0 28 20" fill="none" xmlns="http://www.w3.org/2000/svg">
<rect width="28" height="20" rx="2" fill="#DBD6D5"/>
<g clip-path="url(#clip0_151_19)">
<path d="M17.4304 3.96179H10.5718V15.0362H17.4304V3.96179Z" fill="#FF5F00"/>
<path d="M11.2782 9.49998C11.2773 8.43361 11.5219 7.38101 11.9933 6.42186C12.4647 5.46271 13.1506 4.62213 13.9991 3.96373C12.9482 3.14722 11.6861 2.63949 10.357 2.49855C9.02801 2.35761 7.68568 2.58916 6.48348 3.16673C5.28127 3.7443 4.26769 4.64458 3.55856 5.7647C2.84944 6.88481 2.47339 8.17955 2.47339 9.50096C2.47339 10.8224 2.84944 12.1171 3.55856 13.2372C4.26769 14.3573 5.28127 15.2576 6.48348 15.8352C7.68568 16.4128 9.02801 16.6443 10.357 16.5034C11.6861 16.3624 12.9482 15.8547 13.9991 15.0382C13.1503 14.3796 12.4642 13.5387 11.9928 12.5792C11.5214 11.6197 11.277 10.5667 11.2782 9.49998Z" fill="#EB001B"/>
<path d="M24.845 13.8645V13.6375H24.944V13.5906H24.7085V13.6375H24.8015V13.8645H24.845ZM25.3021 13.8645V13.5906H25.2309L25.1478 13.7862L25.0647 13.5906H24.9934V13.8645H25.0449V13.6571L25.1221 13.8351H25.1755L25.2527 13.6571V13.8645H25.3021Z" fill="#F79E1B"/>
<path d="M25.5258 9.5C25.5257 10.8215 25.1496 12.1163 24.4404 13.2365C23.7311 14.3566 22.7174 15.2569 21.515 15.8344C20.3127 16.4119 18.9702 16.6433 17.6411 16.5021C16.312 16.361 15.0499 15.853 13.999 15.0362C14.8472 14.3773 15.5329 13.5365 16.0045 12.5772C16.476 11.618 16.721 10.5655 16.721 9.49902C16.721 8.43255 16.476 7.38 16.0045 6.4208C15.5329 5.46159 14.8472 4.62078 13.999 3.9618C15.0499 3.14504 16.312 2.63705 17.6411 2.49591C18.9702 2.35477 20.3127 2.58617 21.515 3.16366C22.7174 3.74114 23.7311 4.64142 24.4404 5.76157C25.1496 6.88172 25.5257 8.17654 25.5258 9.49804V9.5Z" fill="#F79E1B"/>
</g>
<defs>
<clipPath id="clip0_151_19">
<rect width="26" height="17" fill="white" transform="translate(1 1)"/>
</clipPath>
</defs>
</svg>
