<svg width="24" height="24" viewBox="0 0 24 24" fill="none" xmlns="http://www.w3.org/2000/svg">
<mask id="mask0_261_92" style="mask-type:alpha" maskUnits="userSpaceOnUse" x="0" y="0" width="24" height="24">
<rect width="24" height="24" fill="#D9D9D9"/>
</mask>
<g mask="url(#mask0_261_92)">
<path d="M6.99977 20V8.975C6.99977 8.425 7.19977 7.95833 7.59977 7.575C7.99977 7.19167 8.47477 7 9.02477 7H19.9998C20.5498 7 21.0206 7.19583 21.4123 7.5875C21.8039 7.97917 21.9998 8.45 21.9998 9V17L16.9998 22H8.99977C8.44977 22 7.97894 21.8042 7.58727 21.4125C7.1956 21.0208 6.99977 20.55 6.99977 20ZM2.02477 6.25C1.92477 5.7 2.0331 5.20417 2.34977 4.7625C2.66644 4.32083 3.09977 4.05 3.64977 3.95L14.4998 2.025C15.0498 1.925 15.5456 2.03333 15.9873 2.35C16.4289 2.66667 16.6998 3.1 16.7998 3.65L17.0498 5H8.99977C7.89977 5 6.9581 5.39167 6.17477 6.175C5.39144 6.95833 4.99977 7.9 4.99977 9V18.55C4.7331 18.4 4.50394 18.2 4.31227 17.95C4.1206 17.7 3.99977 17.4167 3.94977 17.1L2.02477 6.25ZM19.9998 16H15.9998V20L19.9998 16Z" fill="#1C1B1F"/>
</g>
</svg>
