<svg width="42" height="42" viewBox="0 0 42 42" fill="none" xmlns="http://www.w3.org/2000/svg">
<mask id="mask0_440_8" style="mask-type:alpha" maskUnits="userSpaceOnUse" x="0" y="0" width="42" height="42">
<path d="M42 0H0V42H42V0Z" fill="#D9D9D9"/>
</mask>
<g mask="url(#mask0_440_8)">
<path d="M21 21C19.075 21 17.4271 20.3146 16.0562 18.9437C14.6855 17.5729 14.0001 15.925 14.0001 14.0001C14.0001 12.075 14.6855 10.4271 16.0562 9.0563C17.4271 7.68542 19.075 7 21 7C22.925 7 24.5729 7.68542 25.9438 9.0563C27.3145 10.4271 27.9999 12.075 27.9999 14.0001C27.9999 15.925 27.3145 17.5729 25.9438 18.9437C24.5729 20.3146 22.925 21 21 21ZM7 35V30.1C7 29.1083 7.25521 28.1969 7.76563 27.3656C8.27609 26.5343 8.95413 25.9 9.8 25.4625C11.6084 24.5583 13.4459 23.8802 15.3125 23.4281C17.1792 22.9761 19.075 22.75 21 22.75C22.925 22.75 24.8208 22.9761 26.6875 23.4281C28.5541 23.8802 30.3916 24.5583 32.2 25.4625C33.0459 25.9 33.7239 26.5343 34.2344 27.3656C34.7448 28.1969 35 29.1083 35 30.1V35H7Z" fill="#73706F"/>
</g>
</svg>
