<svg width="28" height="28" viewBox="0 0 28 28" fill="none" xmlns="http://www.w3.org/2000/svg">
<path d="M14 14C12.1438 14 10.5547 13.3391 9.23281 12.0172C7.91094 10.6953 7.25 9.10625 7.25 7.25C7.25 5.39375 7.91094 3.80469 9.23281 2.48281C10.5547 1.16094 12.1438 0.5 14 0.5C15.8562 0.5 17.4453 1.16094 18.7672 2.48281C20.0891 3.80469 20.75 5.39375 20.75 7.25C20.75 9.10625 20.0891 10.6953 18.7672 12.0172C17.4453 13.3391 15.8562 14 14 14ZM0.5 27.5V22.775C0.5 21.8188 0.746094 20.9398 1.23828 20.1383C1.73047 19.3367 2.38437 18.725 3.2 18.3031C4.94375 17.4312 6.71562 16.7773 8.51562 16.3414C10.3156 15.9055 12.1438 15.6875 14 15.6875C15.8562 15.6875 17.6844 15.9055 19.4844 16.3414C21.2844 16.7773 23.0563 17.4312 24.8 18.3031C25.6156 18.725 26.2695 19.3367 26.7617 20.1383C27.2539 20.9398 27.5 21.8188 27.5 22.775V27.5H0.5Z" fill="#73706F"/>
</svg>
