<svg width="48" height="48" viewBox="0 0 48 48" fill="none" xmlns="http://www.w3.org/2000/svg">
<mask id="mask0_362_80" style="mask-type:alpha" maskUnits="userSpaceOnUse" x="0" y="0" width="48" height="48">
<rect width="48" height="48" fill="#D9D9D9"/>
</mask>
<g mask="url(#mask0_362_80)">
<path d="M13 46C12.2 46 11.5 45.7 10.9 45.1C10.3 44.5 10 43.8 10 43V5C10 4.2 10.3 3.5 10.9 2.9C11.5 2.3 12.2 2 13 2H35C35.8 2 36.5 2.3 37.1 2.9C37.7 3.5 38 4.2 38 5V43C38 43.8 37.7 44.5 37.1 45.1C36.5 45.7 35.8 46 35 46H13ZM24 42.25C24.4333 42.25 24.7917 42.1083 25.075 41.825C25.3583 41.5417 25.5 41.1833 25.5 40.75C25.5 40.3167 25.3583 39.9583 25.075 39.675C24.7917 39.3917 24.4333 39.25 24 39.25C23.5667 39.25 23.2083 39.3917 22.925 39.675C22.6417 39.9583 22.5 40.3167 22.5 40.75C22.5 41.1833 22.6417 41.5417 22.925 41.825C23.2083 42.1083 23.5667 42.25 24 42.25ZM13 35.5H35V9.5H13V35.5Z" fill="#1C1B1F"/>
</g>
</svg>
