<svg width="24" height="24" viewBox="0 0 24 24" fill="none" xmlns="http://www.w3.org/2000/svg">
<mask id="mask0_209_340" style="mask-type:alpha" maskUnits="userSpaceOnUse" x="0" y="0" width="24" height="24">
<rect width="24" height="24" fill="#D9D9D9"/>
</mask>
<g mask="url(#mask0_209_340)">
<path d="M14.5 23C14.0833 23 13.7291 22.8542 13.4375 22.5625C13.1458 22.2708 13 21.9167 13 21.5V14.5C13 14.0833 13.1458 13.7292 13.4375 13.4375C13.7291 13.1458 14.0833 13 14.5 13H21.5C21.9166 13 22.2708 13.1458 22.5625 13.4375C22.8541 13.7292 23 14.0833 23 14.5V21.5C23 21.9167 22.8541 22.2708 22.5625 22.5625C22.2708 22.8542 21.9166 23 21.5 23H14.5ZM14.5 21.5H21.5V20.7C21.0833 20.1833 20.575 19.7708 19.975 19.4625C19.375 19.1542 18.7166 19 18 19C17.2833 19 16.625 19.1542 16.025 19.4625C15.425 19.7708 14.9166 20.1833 14.5 20.7V21.5ZM18 18C18.4166 18 18.7708 17.8542 19.0625 17.5625C19.3541 17.2708 19.5 16.9167 19.5 16.5C19.5 16.0833 19.3541 15.7292 19.0625 15.4375C18.7708 15.1458 18.4166 15 18 15C17.5833 15 17.2291 15.1458 16.9375 15.4375C16.6458 15.7292 16.5 16.0833 16.5 16.5C16.5 16.9167 16.6458 17.2708 16.9375 17.5625C17.2291 17.8542 17.5833 18 18 18ZM12.05 8.5C11.0833 8.5 10.2583 8.84167 9.57495 9.525C8.89162 10.2083 8.54995 11.0333 8.54995 12C8.54995 12.8 8.77495 13.5 9.22495 14.1C9.67495 14.7 10.2666 15.1167 11 15.35V13.1C10.8666 12.9667 10.7583 12.7958 10.675 12.5875C10.5916 12.3792 10.55 12.1833 10.55 12C10.55 11.5833 10.6958 11.2292 10.9875 10.9375C11.2791 10.6458 11.6333 10.5 12.05 10.5C12.2833 10.5 12.4916 10.5458 12.675 10.6375C12.8583 10.7292 13.0166 10.85 13.15 11H15.4C15.1833 10.2667 14.7708 9.66667 14.1625 9.2C13.5541 8.73333 12.85 8.5 12.05 8.5ZM9.24995 22L8.84995 18.8C8.63329 18.7167 8.42912 18.6167 8.23745 18.5C8.04578 18.3833 7.85828 18.2583 7.67495 18.125L4.69995 19.375L1.94995 14.625L4.52495 12.675C4.50828 12.5583 4.49995 12.4458 4.49995 12.3375V11.6625C4.49995 11.5542 4.50828 11.4417 4.52495 11.325L1.94995 9.375L4.69995 4.625L7.67495 5.875C7.85828 5.74167 8.04995 5.61667 8.24995 5.5C8.44995 5.38333 8.64995 5.28333 8.84995 5.2L9.24995 2H14.75L15.15 5.2C15.3666 5.28333 15.5708 5.38333 15.7625 5.5C15.9541 5.61667 16.1416 5.74167 16.325 5.875L19.3 4.625L22.05 9.375L19.925 11H17.4C17.3833 10.9167 17.3666 10.8292 17.35 10.7375C17.3333 10.6458 17.3083 10.5583 17.275 10.475L19.425 8.85L18.45 7.15L15.975 8.2C15.6083 7.81667 15.2041 7.49583 14.7625 7.2375C14.3208 6.97917 13.8416 6.78333 13.325 6.65L13 4H11.025L10.675 6.65C10.1583 6.78333 9.67912 6.97917 9.23745 7.2375C8.79579 7.49583 8.39162 7.80833 8.02495 8.175L5.54995 7.15L4.57495 8.85L6.72495 10.45C6.64162 10.7 6.58328 10.95 6.54995 11.2C6.51662 11.45 6.49995 11.7167 6.49995 12C6.49995 12.2667 6.51662 12.525 6.54995 12.775C6.58328 13.025 6.64162 13.275 6.72495 13.525L4.57495 15.15L5.54995 16.85L8.02495 15.8C8.42495 16.2167 8.87495 16.5667 9.37495 16.85C9.87495 17.1333 10.4166 17.3167 11 17.4V22H9.24995Z" fill="#F28B24"/>
</g>
</svg>
