<svg width="24" height="24" viewBox="0 0 24 24" fill="none" xmlns="http://www.w3.org/2000/svg">
<path d="M19.3903 11.5365H18.0938C18.0689 11.5365 18.045 11.5266 18.0275 11.509C18.0099 11.4914 18 11.4676 18 11.4427V7.82209C18 7.33898 17.8081 6.87566 17.4665 6.53405C17.1249 6.19244 16.6615 6.00053 16.1784 6.00053H12.5578C12.5329 6.00053 12.5091 5.99065 12.4915 5.97307C12.4739 5.95549 12.4641 5.93164 12.4641 5.90678V4.61022C12.4641 3.33803 11.4562 2.27303 10.1841 2.251C9.87583 2.24558 9.56961 2.30161 9.28327 2.4158C8.99692 2.52999 8.73618 2.70006 8.51627 2.9161C8.29635 3.13213 8.12166 3.3898 8.00238 3.67406C7.88311 3.95833 7.82164 4.2635 7.82156 4.57178V5.90678C7.82156 5.93164 7.81169 5.95549 7.7941 5.97307C7.77652 5.99065 7.75268 6.00053 7.72781 6.00053H4.10719C3.61509 6.00201 3.14357 6.19816 2.7956 6.54613C2.44763 6.8941 2.25148 7.36562 2.25 7.85772V11.1568C2.25 11.1816 2.25988 11.2055 2.27746 11.2231C2.29504 11.2407 2.31889 11.2505 2.34375 11.2505H3.60516C4.98188 11.2505 6.12141 12.4449 6.14062 13.8216C6.16031 15.2218 5.03859 16.5005 3.64266 16.5005H2.34375C2.31889 16.5005 2.29504 16.5104 2.27746 16.528C2.25988 16.5456 2.25 16.5694 2.25 16.5943V19.8933C2.25148 20.3854 2.44763 20.857 2.7956 21.2049C3.14357 21.5529 3.61509 21.749 4.10719 21.7505H7.40625C7.43111 21.7505 7.45496 21.7407 7.47254 21.7231C7.49012 21.7055 7.5 21.6816 7.5 21.6568V20.6757C7.5 19.2563 8.66016 18.0343 10.0781 18.001C11.4891 17.9682 12.75 18.953 12.75 20.3579V21.6568C12.75 21.6816 12.7599 21.7055 12.7775 21.7231C12.795 21.7407 12.8189 21.7505 12.8438 21.7505H16.1784C16.6615 21.7505 17.1249 21.5586 17.4665 21.217C17.8081 20.8754 18 20.4121 18 19.929V16.2727C18 16.2479 18.0099 16.224 18.0275 16.2064C18.045 16.1888 18.0689 16.179 18.0938 16.179H19.4288C20.7239 16.179 21.75 15.1163 21.75 13.8165C21.75 12.5166 20.6625 11.5365 19.3903 11.5365Z" stroke="#262525" stroke-width="2" stroke-linecap="round" stroke-linejoin="round"/>
</svg>
