<svg width="91" height="61" viewBox="0 0 91 61" fill="none" xmlns="http://www.w3.org/2000/svg">
<path d="M75.8333 53.375C80.0042 53.375 83.3788 49.9437 83.3788 45.75L83.4167 7.625C83.4167 3.43125 80.0042 0 75.8333 0H15.1667C10.9958 0 7.58333 3.43125 7.58333 7.625V45.75C7.58333 49.9437 10.9958 53.375 15.1667 53.375H0V61H91V53.375H75.8333ZM15.1667 7.625H75.8333V45.75H15.1667V7.625Z" fill="#343A40"/>
<path d="M42.3182 31.3686V30.946C42.3265 29.496 42.4549 28.3401 42.7035 27.4783C42.9603 26.6166 43.3332 25.9206 43.8221 25.3903C44.311 24.86 44.8993 24.3794 45.587 23.9485C46.1007 23.6171 46.5606 23.2732 46.9666 22.9169C47.3726 22.5606 47.6958 22.167 47.9361 21.7362C48.1764 21.297 48.2965 20.8081 48.2965 20.2695C48.2965 19.6978 48.1598 19.1965 47.8864 18.7656C47.6129 18.3348 47.2442 18.0033 46.7802 17.7713C46.3245 17.5393 45.819 17.4233 45.2638 17.4233C44.7253 17.4233 44.2157 17.5434 43.7351 17.7837C43.2545 18.0157 42.8609 18.3638 42.5543 18.8278C42.2478 19.2835 42.082 19.8511 42.0572 20.5305H36.9862C37.0276 18.8733 37.4253 17.5062 38.1793 16.429C38.9334 15.3435 39.9318 14.5356 41.1747 14.0053C42.4176 13.4667 43.7889 13.1974 45.2887 13.1974C46.9376 13.1974 48.396 13.4709 49.6637 14.0178C50.9315 14.5563 51.9258 15.3394 52.6467 16.3668C53.3675 17.3943 53.728 18.633 53.728 20.0831C53.728 21.0526 53.5664 21.9143 53.2433 22.6683C52.9284 23.4141 52.4851 24.0769 51.9134 24.657C51.3416 25.2287 50.6663 25.7466 49.8874 26.2106C49.2328 26.6 48.6942 27.006 48.2717 27.4286C47.8574 27.8512 47.5466 28.3401 47.3395 28.8952C47.1406 29.4504 47.0371 30.134 47.0288 30.946V31.3686H42.3182ZM44.7791 39.3232C43.9505 39.3232 43.2421 39.0331 42.6538 38.4531C42.0737 37.8648 41.7879 37.1605 41.7962 36.3402C41.7879 35.5282 42.0737 34.8321 42.6538 34.2521C43.2421 33.6721 43.9505 33.3821 44.7791 33.3821C45.5663 33.3821 46.2582 33.6721 46.8548 34.2521C47.4514 34.8321 47.7538 35.5282 47.7621 36.3402C47.7538 36.8871 47.6088 37.3884 47.3271 37.8441C47.0536 38.2915 46.6932 38.652 46.2457 38.9254C45.7983 39.1906 45.3094 39.3232 44.7791 39.3232Z" fill="#343A40"/>
</svg>
