<svg width="117" height="146" viewBox="0 0 117 146" fill="none" xmlns="http://www.w3.org/2000/svg">
<path d="M51.5049 123.327H65.9603V93.1508L77.5246 104.715L87.6434 94.4157L58.7326 65.5048L29.8217 94.4157L40.1212 104.534L51.5049 93.1508V123.327ZM15.3663 145.01C11.3911 145.01 7.98802 143.594 5.15717 140.763C2.32632 137.933 0.910889 134.529 0.910889 130.554V14.9108C0.910889 10.9356 2.32632 7.53256 5.15717 4.7017C7.98802 1.87085 11.3911 0.455421 15.3663 0.455421H73.188L116.554 43.8217V130.554C116.554 134.529 115.139 137.933 112.308 140.763C109.477 143.594 106.074 145.01 102.099 145.01H15.3663ZM65.9603 51.0494H102.099L65.9603 14.9108V51.0494Z" fill="#FFB973"/>
</svg>
