<svg width="28" height="20" viewBox="0 0 28 20" fill="none" xmlns="http://www.w3.org/2000/svg">
<rect width="28" height="20" rx="2" fill="#DBD6D5"/>
<g clip-path="url(#clip0_151_36)">
<path d="M12.4 13.8846H10.4558L11.6718 6.14038H13.6159L12.4 13.8846Z" fill="#00579F"/>
<path d="M19.4477 6.3297C19.0642 6.17301 18.456 6 17.7039 6C15.784 6 14.432 7.05448 14.4237 8.56206C14.4078 9.67435 15.3917 10.2921 16.1276 10.663C16.8798 11.042 17.1355 11.2894 17.1355 11.6272C17.1278 12.146 16.5277 12.3851 15.9679 12.3851C15.1917 12.3851 14.7758 12.2618 14.1438 11.9732L13.8878 11.8494L13.6157 13.5878C14.0717 13.8018 14.9118 13.9917 15.784 14C17.824 14 19.152 12.9618 19.1678 11.3553C19.1755 10.4737 18.656 9.79819 17.5358 9.24621C16.8559 8.89187 16.4394 8.65294 16.4394 8.29039C16.4474 7.9608 16.7916 7.62321 17.5592 7.62321C18.1913 7.60668 18.6557 7.76315 19.0074 7.91974L19.1833 8.00197L19.4477 6.3297Z" fill="#00579F"/>
<path d="M22.0316 11.1411C22.1917 10.6962 22.8078 8.97433 22.8078 8.97433C22.7997 8.99086 22.9676 8.52122 23.0636 8.23291L23.1995 8.9002C23.1995 8.9002 23.5677 10.7539 23.6476 11.1411C23.3438 11.1411 22.4156 11.1411 22.0316 11.1411ZM24.4315 6.14038H22.9276C22.4639 6.14038 22.1116 6.28032 21.9115 6.78292L19.0237 13.8845H21.0636C21.0636 13.8845 21.3995 12.9287 21.4717 12.7228C21.6955 12.7228 23.6799 12.7228 23.9678 12.7228C24.0236 12.9947 24.1998 13.8845 24.1998 13.8845H25.9999L24.4315 6.14038Z" fill="#00579F"/>
<path d="M8.83196 6.14038L6.92798 11.4212L6.71992 10.3502C6.36792 9.11438 5.26395 7.7717 4.03198 7.10408L5.77596 13.8764H7.83187L10.8878 6.14038H8.83196Z" fill="#00579F"/>
<path d="M5.15998 6.14038H2.032L2 6.29685C4.44002 6.9395 6.05599 8.48859 6.71993 10.3505L6.03994 6.79135C5.92799 6.29675 5.58396 6.1567 5.15998 6.14038Z" fill="#FAA61A"/>
</g>
<defs>
<clipPath id="clip0_151_36">
<rect width="24" height="8" fill="white" transform="translate(2 6)"/>
</clipPath>
</defs>
</svg>
