<svg width="91" height="61" viewBox="0 0 91 61" fill="none" xmlns="http://www.w3.org/2000/svg">
<path d="M75.8333 53.375C80.0042 53.375 83.3788 49.9438 83.3788 45.75L83.4167 7.625C83.4167 3.43125 80.0042 0 75.8333 0H15.1667C10.9958 0 7.58333 3.43125 7.58333 7.625V45.75C7.58333 49.9438 10.9958 53.375 15.1667 53.375H0V61H91V53.375H75.8333ZM15.1667 7.625H75.8333V45.75H15.1667V7.625Z" fill="#343A40"/>
<path d="M33.0864 23.3629C35.3621 22.21 40.7605 20.7233 44.1481 24L47 13.0777C44.9635 11.0231 42.4706 9.91541 36.0247 12.5316L33 23.3629" stroke="#343A40" stroke-width="2.5" stroke-linecap="round"/>
<path d="M56.9136 29.6371C54.6379 30.79 49.2395 32.2767 45.8519 29L43 39.9223C45.0365 41.9769 47.5294 43.0846 53.9753 40.4684L57 29.6371" stroke="#343A40" stroke-width="2.5" stroke-linecap="round"/>
<path d="M29.0864 37.3629C31.3621 36.21 36.7605 34.7233 40.1481 38L43 27.0777C40.9635 25.0231 38.4706 23.9154 32.0247 26.5316L29 37.3629" stroke="#343A40" stroke-width="2.5" stroke-linecap="round"/>
<path d="M60.9136 16.5881C58.6379 17.6523 53.2395 19.0246 49.8519 16L47 26.0821C49.0365 27.9787 51.5294 29.0012 57.9753 26.5862L61 16.5881" stroke="#343A40" stroke-width="2.5" stroke-linecap="round"/>
</svg>
