<svg xmlns="http://www.w3.org/2000/svg" height="24" viewBox="0 -960 960 960" width="24"><path fill="#D92616" d="m843.653-224.424-47.691-47.691v-226.463H569.499L448.27-619.807h347.692v-84.654q0-5.385-3.462-8.846-3.462-3.462-8.847-3.462H351.308l-55.96-55.96h488.305q28.437 0 48.353 19.915 19.916 19.916 19.916 48.27v448.956q0 8.327-2.116 16.419-2.115 8.091-6.153 14.745ZM409.886-471.347Zm163.999-23.345Zm-192.053-3.886H164.038v243.039q0 4.615 3.847 8.462 3.846 3.846 8.462 3.846h461.04L381.832-498.578Zm434.708 434.5L693.347-187.27h-517q-28.437 0-48.353-19.915-19.916-19.916-19.916-48.277v-449.074q0-28.361 19.916-48.277 19.916-19.915 48.353-19.915h11.424l55.96 55.96h-67.384q-4.616 0-8.462 3.846-3.847 3.847-3.847 8.462v84.654h96.773L60.309-820.308l40.038-39.845 756.23 756.23-40.037 39.845Z"/></svg>