<svg width="24" height="16" fill="none" xmlns="http://www.w3.org/2000/svg"><g clip-path="url(#a)"><path d="M21.997 15.75H22c.956.008 1.74-.773 1.751-1.746V2.006a1.788 1.788 0 0 0-.52-1.25A1.72 1.72 0 0 0 21.997.25H2.001A1.718 1.718 0 0 0 .77.757c-.33.33-.517.779-.521 1.247v11.99c.004.47.191.92.52 1.25.329.328.771.51 1.233.506h19.994Zm0 .5h-.002.002Z" fill="#fff" stroke="#000" stroke-opacity=".2" stroke-width=".5"/><path fill-rule="evenodd" clip-rule="evenodd" d="M4.678 5.752c.244-.08.499-.12.755-.12 1.152 0 2.114.802 2.334 1.868L9.4 7.174C9.025 5.362 7.392 4 5.433 4c-.449 0-.88.072-1.283.204l.528 1.548Z" fill="#FFCA05"/><path fill-rule="evenodd" clip-rule="evenodd" d="M2.783 11 3.9 9.765A2.33 2.33 0 0 1 3.087 8c0-.703.314-1.333.812-1.765L2.782 5A3.959 3.959 0 0 0 1.4 8a3.96 3.96 0 0 0 1.383 3Z" fill="#00A4DF"/><path fill-rule="evenodd" clip-rule="evenodd" d="M7.768 8.5c-.222 1.066-1.182 1.866-2.333 1.866-.257 0-.512-.04-.756-.12l-.53 1.55A4.12 4.12 0 0 0 5.436 12C7.39 12 9.024 10.639 9.4 8.828L7.768 8.5Z" fill="#EE4123"/><path fill-rule="evenodd" clip-rule="evenodd" d="m14.022 9.314-.002.001-.046-.031c-.133.217-.34.393-.603.507-.498.217-.96.161-1.292-.13l-.03.046-.002-.001-.566.85c.141.098.292.181.45.247.625.261 1.265.25 1.895-.026.456-.198.813-.5 1.058-.884l-.862-.58Zm-1.767-2.098c-.526.227-.798.723-.742 1.305l2.23-.964c-.383-.453-.882-.603-1.488-.341Zm-1.48 2.59a2.913 2.913 0 0 1-.17-.327 2.412 2.412 0 0 1-.052-1.817c.238-.654.695-1.155 1.285-1.41.741-.32 1.561-.257 2.272.167.451.26.771.661 1.014 1.23.032.072.058.15.085.216l-4.435 1.94v.001ZM16.758 5v4.728l.732.298-.416.974-.807-.338a.919.919 0 0 1-.398-.336 1.06 1.06 0 0 1-.156-.586V5h1.045Zm1.896 3.523a1.34 1.34 0 0 0 .454 1.008l-.75.842a2.47 2.47 0 0 1-.828-1.85 2.468 2.468 0 0 1 .83-1.85l.751.841a1.34 1.34 0 0 0-.457 1.01Zm1.334 1.342c.644 0 1.183-.458 1.308-1.069l1.102.226a2.463 2.463 0 0 1-3.192 1.844l.359-1.07c.133.044.275.069.423.069Zm.003-3.81c1.19 0 2.181.85 2.408 1.978l-1.102.225a1.336 1.336 0 0 0-1.73-1.006l-.356-1.072c.252-.084.515-.126.78-.126Z" fill="#000"/></g><defs><clipPath id="a"><path fill="#fff" d="M0 0h24v16H0z"/></clipPath></defs><script/></svg>