<svg width="39" height="30" viewBox="0 0 39 30" fill="none" xmlns="http://www.w3.org/2000/svg">
<path d="M38.9419 23.9423C38.9419 27.2876 36.2298 30 32.8843 30H0V6.05759C0 2.71215 2.71218 3.90911e-07 6.058 3.90911e-07H38.9419V23.9423Z" fill="white"/>
<mask id="mask0_1651_2683" style="mask-type:luminance" maskUnits="userSpaceOnUse" x="28" y="15" width="4" height="3">
<path d="M28.2207 17.8083H30.7253C30.804 17.8083 30.953 17.7959 31.024 17.7803C31.5047 17.6763 31.9051 17.2494 31.9051 16.668C31.9051 16.0864 31.5047 15.6585 31.024 15.5545C30.953 15.539 30.804 15.5263 30.7253 15.5263H28.2207V17.8083Z" fill="white"/>
</mask>
<g mask="url(#mask0_1651_2683)">
<path d="M28.2207 17.8083H30.7253C30.804 17.8083 30.953 17.7959 31.024 17.7803C31.5047 17.6763 31.9051 17.2494 31.9051 16.668C31.9051 16.0864 31.5047 15.6585 31.024 15.5545C30.953 15.539 30.804 15.5263 30.7253 15.5263H28.2207V17.8083Z" fill="url(#paint0_linear_1651_2683)"/>
</g>
<mask id="mask1_1651_2683" style="mask-type:luminance" maskUnits="userSpaceOnUse" x="26" y="2" width="11" height="26">
<path d="M30.4315 2.01916C28.042 2.01916 26.1045 3.95649 26.1045 6.34578V10.8399H32.227C32.3689 10.8399 32.5426 10.8498 32.6509 10.8555C34.0364 10.9249 35.0584 11.6367 35.0584 12.872C35.0584 13.8433 34.3599 14.6727 33.0888 14.8596V14.9083C34.493 15.0057 35.568 15.7784 35.568 16.9961C35.568 18.3131 34.388 19.1598 32.8151 19.1598H26.1045V27.9805H32.4509C34.8404 27.9805 36.7777 26.0431 36.7777 23.6536V2.01916H30.4315Z" fill="white"/>
</mask>
<g mask="url(#mask1_1651_2683)">
<path d="M30.4315 2.01916C28.042 2.01916 26.1045 3.95649 26.1045 6.34578V10.8399H32.227C32.3689 10.8399 32.5426 10.8498 32.6509 10.8555C34.0364 10.9249 35.0584 11.6367 35.0584 12.872C35.0584 13.8433 34.3599 14.6727 33.0888 14.8596V14.9083C34.493 15.0057 35.568 15.7784 35.568 16.9961C35.568 18.3131 34.388 19.1598 32.8151 19.1598H26.1045V27.9805H32.4509C34.8404 27.9805 36.7777 26.0431 36.7777 23.6536V2.01916H30.4315Z" fill="url(#paint1_linear_1651_2683)"/>
</g>
<mask id="mask2_1651_2683" style="mask-type:luminance" maskUnits="userSpaceOnUse" x="28" y="12" width="4" height="3">
<path d="M31.6085 13.1857C31.6085 12.614 31.2081 12.2308 30.7374 12.1512C30.6934 12.1438 30.5735 12.1322 30.4909 12.1322H28.2207V14.2388H30.4909C30.5735 14.2388 30.6934 14.2269 30.7374 14.2194C31.2081 14.1397 31.6085 13.7568 31.6085 13.1857Z" fill="white"/>
</mask>
<g mask="url(#mask2_1651_2683)">
<path d="M31.6085 13.1857C31.6085 12.614 31.2081 12.2308 30.7374 12.1512C30.6934 12.1438 30.5735 12.1322 30.4909 12.1322H28.2207V14.2388H30.4909C30.5735 14.2388 30.6934 14.2269 30.7374 14.2194C31.2081 14.1397 31.6085 13.7568 31.6085 13.1857Z" fill="url(#paint2_linear_1651_2683)"/>
</g>
<mask id="mask3_1651_2683" style="mask-type:luminance" maskUnits="userSpaceOnUse" x="2" y="2" width="11" height="26">
<path d="M6.49003 2.01916C4.10022 2.01916 2.16309 3.95649 2.16309 6.34578V17.0314C3.37659 17.6192 4.63027 18.0022 5.90626 18.0022C7.40231 18.0022 8.22413 17.089 8.22413 15.8602V10.8402H11.9455V15.8602C11.9455 17.8236 10.7403 19.3984 6.60436 19.3984C4.11524 19.3984 2.16309 18.8617 2.16309 18.8617V27.9805H8.50915C10.8988 27.9805 12.8361 26.0431 12.8361 23.6536V2.01916H6.49003Z" fill="white"/>
</mask>
<g mask="url(#mask3_1651_2683)">
<path d="M6.49003 2.01916C4.10022 2.01916 2.16309 3.95649 2.16309 6.34578V17.0314C3.37659 17.6192 4.63027 18.0022 5.90626 18.0022C7.40231 18.0022 8.22413 17.089 8.22413 15.8602V10.8402H11.9455V15.8602C11.9455 17.8236 10.7403 19.3984 6.60436 19.3984C4.11524 19.3984 2.16309 18.8617 2.16309 18.8617V27.9805H8.50915C10.8988 27.9805 12.8361 26.0431 12.8361 23.6536V2.01916H6.49003Z" fill="url(#paint3_linear_1651_2683)"/>
</g>
<mask id="mask4_1651_2683" style="mask-type:luminance" maskUnits="userSpaceOnUse" x="14" y="2" width="11" height="26">
<path d="M18.4616 2.01916C16.0719 2.01916 14.1348 3.95649 14.1348 6.34578V12.0105C15.2311 11.07 17.1269 10.4825 20.2071 10.6212C21.8559 10.6946 23.6043 11.1368 23.6043 11.1368V12.9689C22.7293 12.5254 21.6798 12.1146 20.3277 12.0121C17.99 11.8355 16.5833 12.9779 16.5833 15.0001C16.5833 17.0218 17.99 18.164 20.3277 17.9865C21.6798 17.8851 22.7431 17.4633 23.6043 17.0311V18.8621C23.6043 18.8621 21.8559 19.3042 20.2071 19.379C17.1269 19.5176 15.2311 18.9301 14.1348 17.9896V27.9805H20.4809C22.8703 27.9805 24.8075 26.0431 24.8075 23.6536V2.01916H18.4616Z" fill="white"/>
</mask>
<g mask="url(#mask4_1651_2683)">
<path d="M18.4616 2.01916C16.0719 2.01916 14.1348 3.95649 14.1348 6.34578V12.0105C15.2311 11.07 17.1269 10.4825 20.2071 10.6212C21.8559 10.6946 23.6043 11.1368 23.6043 11.1368V12.9689C22.7293 12.5254 21.6798 12.1146 20.3277 12.0121C17.99 11.8355 16.5833 12.9779 16.5833 15.0001C16.5833 17.0218 17.99 18.164 20.3277 17.9865C21.6798 17.8851 22.7431 17.4633 23.6043 17.0311V18.8621C23.6043 18.8621 21.8559 19.3042 20.2071 19.379C17.1269 19.5176 15.2311 18.9301 14.1348 17.9896V27.9805H20.4809C22.8703 27.9805 24.8075 26.0431 24.8075 23.6536V2.01916H18.4616Z" fill="url(#paint4_linear_1651_2683)"/>
</g>
<defs>
<linearGradient id="paint0_linear_1651_2683" x1="26.1058" y1="16.6673" x2="36.8064" y2="16.6673" gradientUnits="userSpaceOnUse">
<stop stop-color="#137F48"/>
<stop offset="1" stop-color="#5AC134"/>
</linearGradient>
<linearGradient id="paint1_linear_1651_2683" x1="26.1045" y1="14.9999" x2="36.8054" y2="14.9999" gradientUnits="userSpaceOnUse">
<stop stop-color="#137F48"/>
<stop offset="1" stop-color="#5AC134"/>
</linearGradient>
<linearGradient id="paint2_linear_1651_2683" x1="26.1056" y1="13.1855" x2="36.8058" y2="13.1855" gradientUnits="userSpaceOnUse">
<stop stop-color="#137F48"/>
<stop offset="1" stop-color="#5AC134"/>
</linearGradient>
<linearGradient id="paint3_linear_1651_2683" x1="2.14923" y1="14.9999" x2="13.0153" y2="14.9999" gradientUnits="userSpaceOnUse">
<stop stop-color="#303377"/>
<stop offset="1" stop-color="#1576C5"/>
</linearGradient>
<linearGradient id="paint4_linear_1651_2683" x1="14.0708" y1="14.9999" x2="24.6241" y2="14.9999" gradientUnits="userSpaceOnUse">
<stop stop-color="#6D2E33"/>
<stop offset="1" stop-color="#ED1443"/>
</linearGradient>
</defs>
</svg>
