<svg width="43" height="30" viewBox="0 0 43 30" fill="none" xmlns="http://www.w3.org/2000/svg">
<path d="M25.5273 7.13867H16.7773V22.8609H25.5273V7.13867Z" fill="#FF5F00"/>
<path d="M17.3337 15.0001C17.3337 11.9446 18.7503 9.02789 21.1392 7.139C16.8059 3.72234 10.5003 4.47234 7.08365 8.83345C3.69476 13.1668 4.44476 19.4446 8.80587 22.8612C12.4448 25.7223 17.5281 25.7223 21.167 22.8612C18.7503 20.9723 17.3337 18.0557 17.3337 15.0001Z" fill="#EB001B"/>
<path d="M37.3327 15.0001C37.3327 20.5279 32.8605 25.0001 27.3327 25.0001C25.0827 25.0001 22.916 24.2501 21.166 22.8612C25.4993 19.4446 26.2493 13.1668 22.8327 8.80567C22.3327 8.19456 21.7771 7.61123 21.166 7.139C25.4993 3.72234 31.8049 4.47234 35.1938 8.83345C36.5827 10.5834 37.3327 12.7501 37.3327 15.0001Z" fill="#F79E1B"/>
</svg>
